<svg width="11" height="10" viewBox="0 0 11 10" fill="none" xmlns="http://www.w3.org/2000/svg">
<path d="M4.83418 1.2489C5.04373 0.603979 5.95612 0.603978 6.16566 1.2489L6.75719 3.06945C6.8509 3.35787 7.11967 3.55314 7.42293 3.55314H9.33718C10.0153 3.55314 10.2972 4.42087 9.74863 4.81946L8.19997 5.94463C7.95463 6.12288 7.85197 6.43884 7.94568 6.72725L8.53721 8.54782C8.74676 9.19274 8.00862 9.72902 7.46002 9.33044L5.91137 8.20527C5.66603 8.02702 5.33381 8.02702 5.08847 8.20527L3.53982 9.33044C2.99122 9.72902 2.25308 9.19274 2.46263 8.54782L3.05416 6.72725C3.14788 6.43884 3.04522 6.12288 2.79988 5.94463L1.25121 4.81945C0.702614 4.42087 0.984559 3.55314 1.66266 3.55314H3.57691C3.88017 3.55314 4.14894 3.35787 4.24265 3.06945L4.83418 1.2489Z" fill="#C99300"/>
</svg>
