<svg width="20" height="15" viewBox="0 0 20 15" fill="none" xmlns="http://www.w3.org/2000/svg">
<path d="M3.56778 4.7728C3.56765 3.9818 3.83254 3.20318 4.33861 2.50698C4.84468 1.81077 5.57608 1.21881 6.467 0.784341C7.35793 0.34987 8.38045 0.0865121 9.4426 0.0179579C10.5047 -0.0505964 11.5732 0.077802 12.5519 0.391603C13.5305 0.705403 14.3887 1.19477 15.0492 1.81568C15.7098 2.43659 16.1519 3.16957 16.3359 3.9487C16.5198 4.72783 16.4399 5.52868 16.1032 6.2792C15.7666 7.02972 15.1837 7.70639 14.4071 8.24833C15.8713 8.77572 17.1426 9.55719 18.1132 10.5265C19.0838 11.4959 19.7252 12.6245 19.983 13.8168C20.0113 13.9495 20.0042 14.085 19.962 14.2157C19.9197 14.3463 19.8432 14.4695 19.7368 14.5782C19.6304 14.6869 19.4962 14.7789 19.3418 14.8492C19.1875 14.9194 19.016 14.9663 18.8371 14.9874C18.6583 15.0084 18.4756 15.0031 18.2995 14.9718C18.1235 14.9404 17.9574 14.8837 17.8109 14.8047C17.6644 14.7258 17.5403 14.6262 17.4457 14.5117C17.351 14.3972 17.2877 14.2699 17.2594 14.1372C16.9837 12.856 16.1014 11.6896 14.7709 10.8475C13.4404 10.0055 11.7489 9.54293 10.0001 9.54293C8.25125 9.54293 6.55971 10.0055 5.22921 10.8475C3.89871 11.6896 3.01642 12.856 2.74077 14.1372C2.7123 14.2699 2.64887 14.3971 2.55412 14.5116C2.45938 14.6261 2.33516 14.7257 2.18857 14.8045C2.04197 14.8834 1.87588 14.9401 1.69976 14.9714C1.52363 15.0026 1.34094 15.0078 1.16211 14.9867C0.983271 14.9656 0.811796 14.9185 0.657473 14.8482C0.503149 14.7779 0.368998 14.6858 0.26268 14.577C0.156362 14.4682 0.079958 14.345 0.0378315 14.2143C-0.00429511 14.0837 -0.0113197 13.9481 0.0171588 13.8155C0.274032 12.6233 0.915096 11.4947 1.88586 10.5257C2.85662 9.55667 4.12838 8.77589 5.59303 8.24969C4.95348 7.80339 4.44386 7.26466 4.09556 6.6667C3.74725 6.06874 3.56764 5.42421 3.56778 4.7728ZM10.0001 2.04582C9.5106 2.03761 9.02384 2.10203 8.56838 2.23531C8.11293 2.36858 7.69795 2.56803 7.34781 2.82192C6.99768 3.07582 6.71944 3.37906 6.52944 3.71384C6.33944 4.04861 6.2415 4.40818 6.24138 4.77142C6.24126 5.13466 6.33895 5.49427 6.52873 5.82911C6.7185 6.16396 6.99653 6.4673 7.3465 6.72133C7.69646 6.97535 8.11131 7.17495 8.56667 7.3084C9.02204 7.44184 9.50875 7.50644 9.99823 7.49841C10.9586 7.48266 11.8725 7.18859 12.5443 6.67918C13.216 6.16976 13.5923 5.48546 13.5926 4.77278C13.5928 4.06011 13.217 3.37567 12.5455 2.866C11.8741 2.35634 10.9604 2.06193 10.0001 2.04582Z" fill="#181818"/>
</svg>
