<svg width="60" height="60" viewBox="0 0 60 60" fill="none" xmlns="http://www.w3.org/2000/svg">
<path fill-rule="evenodd" clip-rule="evenodd" d="M45 13.3333H30V20H45V13.3333ZM45 23.3333H30V26.6667H45V23.3333ZM26.25 13.3333H15V26.6667H26.25V13.3333ZM26.25 33.3333H45V30H26.25V33.3333ZM37.5 40H45V36.6667H37.5V40ZM45 43.3333H15V46.6667H45V43.3333ZM33.75 36.6667H15V40H33.75V36.6667ZM22.5 30H15V33.3333H22.5V30ZM56.25 0H3.75C2.75544 0 1.80161 0.351189 1.09835 0.976311C0.395088 1.60143 0 2.44928 0 3.33333V56.6667C0 57.5507 0.395088 58.3986 1.09835 59.0237C1.80161 59.6488 2.75544 60 3.75 60H56.25C57.2446 60 58.1984 59.6488 58.9017 59.0237C59.6049 58.3986 60 57.5507 60 56.6667V3.33333C60 2.44928 59.6049 1.60143 58.9017 0.976311C58.1984 0.351189 57.2446 0 56.25 0ZM52.5 53.3333H7.5V6.66667H52.5V53.3333Z" fill="#E5E7EB"/>
</svg>
